<?xml version="1.0" encoding="UTF-8" standalone="no"?>
<!-- Created with Inkscape (http://www.inkscape.org/) -->

<svg
   width="64pt"
   height="64pt"
   viewBox="0 0 22.577778 22.577778"
   version="1.1"
   id="svg831"
   inkscape:version="1.1.2 (0a00cf5339, 2022-02-04)"
   sodipodi:docname="8 -  Vacum Cleaner.svg"
   inkscape:export-filename="/media/taufikramadhan/Data/Tr Design Studio/Project Design/TR Creative Design/Icon Design/Project Hiring/Icon Icons/023 - Electronic Devices And Hardware/5 - Send/1- Line/8 -  Vacum Cleaner.png"
   inkscape:export-xdpi="576"
   inkscape:export-ydpi="576"
   xmlns:inkscape="http://www.inkscape.org/namespaces/inkscape"
   xmlns:sodipodi="http://sodipodi.sourceforge.net/DTD/sodipodi-0.dtd"
   xmlns="http://www.w3.org/2000/svg"
   xmlns:svg="http://www.w3.org/2000/svg"
   xmlns:rdf="http://www.w3.org/1999/02/22-rdf-syntax-ns#"
   xmlns:cc="http://creativecommons.org/ns#"
   xmlns:dc="http://purl.org/dc/elements/1.1/">
  <defs
     id="defs825">
    <pattern
       id="EMFhbasepattern"
       patternUnits="userSpaceOnUse"
       width="6"
       height="6"
       x="0"
       y="0" />
    <pattern
       id="EMFhbasepattern-9"
       patternUnits="userSpaceOnUse"
       width="6"
       height="6"
       x="0"
       y="0" />
    <pattern
       id="EMFhbasepattern-0"
       patternUnits="userSpaceOnUse"
       width="6"
       height="6"
       x="0"
       y="0" />
    <pattern
       id="EMFhbasepattern-7"
       patternUnits="userSpaceOnUse"
       width="6"
       height="6"
       x="0"
       y="0" />
    <pattern
       id="EMFhbasepattern-2"
       patternUnits="userSpaceOnUse"
       width="6"
       height="6"
       x="0"
       y="0" />
    <pattern
       id="EMFhbasepattern-98"
       patternUnits="userSpaceOnUse"
       width="6"
       height="6"
       x="0"
       y="0" />
    <pattern
       id="EMFhbasepattern-6"
       patternUnits="userSpaceOnUse"
       width="6"
       height="6"
       x="0"
       y="0" />
    <pattern
       id="EMFhbasepattern-01"
       patternUnits="userSpaceOnUse"
       width="6"
       height="6"
       x="0"
       y="0" />
    <pattern
       id="EMFhbasepattern-07"
       patternUnits="userSpaceOnUse"
       width="6"
       height="6"
       x="0"
       y="0" />
    <pattern
       id="EMFhbasepattern-8"
       patternUnits="userSpaceOnUse"
       width="6"
       height="6"
       x="0"
       y="0" />
    <pattern
       id="EMFhbasepattern-4"
       patternUnits="userSpaceOnUse"
       width="6"
       height="6"
       x="0"
       y="0" />
    <pattern
       id="EMFhbasepattern-40"
       patternUnits="userSpaceOnUse"
       width="6"
       height="6"
       x="0"
       y="0" />
    <pattern
       id="EMFhbasepattern-08"
       patternUnits="userSpaceOnUse"
       width="6"
       height="6"
       x="0"
       y="0" />
    <pattern
       id="EMFhbasepattern-04"
       patternUnits="userSpaceOnUse"
       width="6"
       height="6"
       x="0"
       y="0" />
    <pattern
       id="EMFhbasepattern-014"
       patternUnits="userSpaceOnUse"
       width="6"
       height="6"
       x="0"
       y="0" />
    <pattern
       id="EMFhbasepattern-27"
       patternUnits="userSpaceOnUse"
       width="6"
       height="6"
       x="0"
       y="0" />
    <pattern
       id="EMFhbasepattern-09"
       patternUnits="userSpaceOnUse"
       width="6"
       height="6"
       x="0"
       y="0" />
    <pattern
       id="EMFhbasepattern-5"
       patternUnits="userSpaceOnUse"
       width="6"
       height="6"
       x="0"
       y="0" />
    <pattern
       id="EMFhbasepattern-018"
       patternUnits="userSpaceOnUse"
       width="6"
       height="6"
       x="0"
       y="0" />
  </defs>
  <sodipodi:namedview
     id="base"
     pagecolor="#ffffff"
     bordercolor="#666666"
     borderopacity="1.0"
     inkscape:pageopacity="0.0"
     inkscape:pageshadow="2"
     inkscape:zoom="4.9552717"
     inkscape:cx="44.598967"
     inkscape:cy="42.681817"
     inkscape:document-units="pt"
     inkscape:current-layer="layer1"
     showgrid="false"
     units="pt"
     inkscape:window-width="1366"
     inkscape:window-height="719"
     inkscape:window-x="0"
     inkscape:window-y="26"
     inkscape:window-maximized="1"
     inkscape:pagecheckerboard="true"
     inkscape:showpageshadow="false"
     inkscape:object-paths="true"
     inkscape:snap-intersection-paths="true"
     inkscape:snap-smooth-nodes="true"
     inkscape:snap-midpoints="true"
     showguides="true"
     inkscape:snap-bbox="true"
     inkscape:bbox-nodes="true"
     inkscape:snap-nodes="false"
     inkscape:snap-global="true"
     inkscape:snap-others="false">
    <inkscape:grid
       type="xygrid"
       id="grid1378" />
    <sodipodi:guide
       position="0.97013831,21.607643"
       orientation="78.000048,0"
       id="guide1380"
       inkscape:locked="false" />
    <sodipodi:guide
       position="0.97013831,0.97013129"
       orientation="0,78.000005"
       id="guide1382"
       inkscape:locked="false" />
    <sodipodi:guide
       position="21.607639,0.97013129"
       orientation="-78.000048,0"
       id="guide1384"
       inkscape:locked="false" />
    <sodipodi:guide
       position="21.607639,21.607643"
       orientation="0,-78.000005"
       id="guide1386"
       inkscape:locked="false" />
  </sodipodi:namedview>
  <metadata
     id="metadata828">
    <rdf:RDF>
      <cc:Work
         rdf:about="">
        <dc:format>image/svg+xml</dc:format>
        <dc:type
           rdf:resource="http://purl.org/dc/dcmitype/StillImage" />
      </cc:Work>
    </rdf:RDF>
  </metadata>
  <g
     inkscape:label="Icon"
     inkscape:groupmode="layer"
     id="layer1"
     transform="translate(0,-274.42223)">
    <path
       id="path19028"
       style="color:#000000;display:inline;fill:#000000;stroke-width:1;stroke-linecap:round;stroke-linejoin:round;stroke-miterlimit:1.5;-inkscape-stroke:none"
       d="m 7.6436515,275.86891 c -0.7902732,0 -1.524166,0.32692 -2.0439879,0.91407 -0.5198187,0.58715 -0.8256566,1.42492 -0.8256566,2.43017 0,1.00523 0.3058345,1.84301 0.8256566,2.43015 0.5198253,0.58715 1.2537181,0.91407 2.0439879,0.91407 h 1.5849998 c 0.260213,0 0.4915623,0.10342 0.661172,0.27305 0.1696127,0.16962 0.2724017,0.40032 0.2724017,0.66052 v 1.25345 H 9.8625195 c -0.1838913,-6.6e-4 -0.3335129,0.14767 -0.334162,0.33157 v 0.94071 c -5.1210422,0.12317 -7.4567944,3.05824 -8.2214538,4.35192 -0.2360963,0.39947 -0.33676398,0.945 -0.33676398,1.36656 v 1.26774 c 0,0.70514 0.57756038,1.2827 1.28269048,1.2827 h 5.8634599 c 0.5165066,0.764 1.3914276,1.26774 2.3800999,1.26774 0.988669,0 1.86236,-0.50374 2.378148,-1.26774 h 0.978434 c 0.375213,0 0.734575,-0.14753 0.99989,-0.41282 l 0.317262,-0.31727 c 0.265315,-0.26531 0.41543,-0.62729 0.415426,-1.00249 v -0.85946 l 0.994687,-0.18724 c 0.157784,-0.0289 0.272761,-0.16658 0.273054,-0.32701 v -2.9314 c 6.66e-4,-0.15355 -0.104482,-0.28695 -0.253548,-0.32376 l -1.016792,-0.25419 c 0,-1.02245 -0.893338,-1.65739 -1.916572,-1.65782 H 13.36407 v -0.93617 c -6.66e-4,-0.18294 -0.148631,-0.33093 -0.331562,-0.33157 h -0.302305 v -1.8873 c 0,-0.79027 -0.321806,-1.50829 -0.84061,-2.02709 -0.518803,-0.5188 -1.236812,-0.8406 -2.0270835,-0.8406 H 7.9608998 c -0.1726892,0 -0.3139696,-0.0652 -0.4251791,-0.18919 -0.1111991,-0.12404 -0.1943886,-0.31428 -0.1943886,-0.58706 0,-0.27278 0.083166,-0.46564 0.1943886,-0.58966 0.1112129,-0.12404 0.2524998,-0.18659 0.4251791,-0.18659 h 7.9243462 c 0.347755,0 0.657191,0.13904 0.884168,0.36602 0.226978,0.22698 0.368621,0.53707 0.368621,0.88482 v 2.52053 h -0.302309 c -0.210212,0 -0.367803,0.19244 -0.326362,0.39852 l 0.316613,1.58436 c 0.03105,0.15591 0.168033,0.26809 0.327012,0.26784 h 0.142375 v 7.41855 h -0.142375 c -0.182935,6.7e-4 -0.330917,0.14863 -0.331566,0.33157 v 0.77625 h -0.302296 c -0.143047,6.6e-4 -0.269805,0.0931 -0.314659,0.22884 l -0.557804,1.67341 h -0.07867 c -0.183837,6.7e-4 -0.332284,0.15033 -0.331565,0.33417 6.65e-4,0.18282 0.148743,0.33085 0.331565,0.33155 h 5.705476 c 0.183837,6.7e-4 0.333446,-0.14772 0.334165,-0.33155 6.65e-4,-0.18486 -0.149312,-0.3349 -0.334165,-0.33417 h -0.07606 l -0.557805,-1.67341 c -0.04514,-0.13669 -0.173308,-0.22922 -0.317262,-0.22884 h -0.299705 v -0.77625 c -6.66e-4,-0.1839 -0.150271,-0.33227 -0.334165,-0.33157 h -0.142375 v -3.10694 l 1.083755,-0.5422 c 0.112747,-0.0562 0.18377,-0.17111 0.183984,-0.2971 v -1.90421 c -2.14e-4,-0.126 -0.07124,-0.24151 -0.183984,-0.29776 l -1.083755,-0.5422 v -0.72814 h 0.142375 c 0.158979,2.6e-4 0.295952,-0.11197 0.327015,-0.26784 l 0.317259,-1.58436 c 0.04149,-0.20635 -0.116535,-0.39893 -0.327011,-0.39852 h -0.299705 v -2.83779 c 0,-0.96535 -0.393658,-1.84343 -1.027196,-2.47696 -0.633538,-0.63355 -1.51162,-1.0246 -2.476966,-1.0246 z m 0,0.66378 h 0.3510638 l 0.2060922,1.23848 H 7.9609097 c -0.2420811,0 -0.4763833,0.0692 -0.6748261,0.19698 l -0.9634818,-0.96347 c 0.3664289,-0.30842 0.8186896,-0.47199 1.3210497,-0.47199 z m 1.0252441,0 h 1.1767206 v 1.23848 h -0.970632 z m 1.8424464,0 h 1.235884 v 1.23848 h -1.235884 z m 1.901608,0 h 1.238487 v 1.23848 H 12.41295 Z m 1.902262,0 h 1.237834 v 1.23848 h -1.237834 z m 1.904209,6.7e-4 c 0.658103,0.004 1.260851,0.23188 1.739728,0.61046 l -0.975185,0.97259 c -0.224519,-0.15673 -0.484389,-0.26676 -0.764543,-0.31597 z m -10.3350032,0.97453 0.9595805,0.95958 c -0.063327,0.12543 -0.1100681,0.26352 -0.1378252,0.41152 H 5.4533869 c 0.044967,-0.55183 0.2012623,-1.01073 0.4310309,-1.3711 z m 12.5454192,0.10656 c 0.379074,0.47915 0.606416,1.08142 0.609818,1.74102 h -1.265142 c -0.04947,-0.28134 -0.16004,-0.54246 -0.317907,-0.76779 z m -11.7236639,1.93021 c 0.033972,0.18202 0.095917,0.34931 0.1833342,0.49604 l -0.7326878,1.22352 c -0.019772,-0.0206 -0.039365,-0.0414 -0.05851,-0.063 -0.3459477,-0.39075 -0.5881321,-0.94615 -0.6455709,-1.65652 z m 11.0975989,0.47718 h 1.236532 v 0.91863 h -1.236532 z m -10.4214712,0.4902 c 0.1760679,0.0927 0.3747138,0.14368 0.5786089,0.14368 h 0.6163158 v 1.23589 h -0.933574 c -0.3441703,0 -0.6646939,-0.0769 -0.95048,-0.22429 z m 1.8613026,0.14368 h 0.6189161 c 0.5840005,0 1.1103565,0.22465 1.5043835,0.59357 l -1.234582,0.92382 c -0.2536416,-0.17447 -0.5597162,-0.27779 -0.8887176,-0.28085 z m 8.5601686,0.95048 h 1.236532 v 0.60201 h -1.236532 z m -6.024688,0.16578 c 0.181233,0.31991 0.28475,0.68916 0.28475,1.08505 v 0.61957 h -1.236533 c -0.0026,-0.2982 -0.08697,-0.57788 -0.232743,-0.81656 z m 5.462329,1.10261 h 2.358647 l -0.183987,0.91862 H 17.4254 Z m -6.413463,1.26774 h 1.235884 v 0.60201 H 10.82795 Z m 7.133149,0.31661 h 0.919274 v 7.41855 h -0.919274 z m -7.767016,0.95113 h 2.506222 v 0.60201 h -2.506222 z m 9.352016,0.5227 0.602013,0.30035 v 1.49139 l -0.602013,0.30035 z m -5.877429,0.74504 c 0.73486,0.0474 1.250514,0.40264 1.250514,1.06164 v 3.16675 l -0.785998,0.4551 c -0.158609,0.0923 -0.21235,0.29563 -0.120271,0.45443 0.09155,0.15953 0.294976,0.21452 0.454438,0.12292 l 0.451834,-0.26135 v 0.67418 H 13.34459 c -0.166165,-1.42414 -1.380662,-2.53548 -2.848188,-2.53548 -1.4675125,0 -2.6836504,1.11136 -2.8501383,2.53548 H 1.6358755 v -0.61631 c 0,-0.27876 0.1236186,-0.82497 0.2431464,-1.0272 0.068276,-0.11549 0.1507302,-0.24668 0.2476965,-0.38878 l 0.8653137,0.72034 c 0.09633,0.0798 0.2297587,0.099 0.3445632,0.0495 l 4.437089,-1.90226 c 0.1218712,-0.0523 0.2010726,-0.17163 0.2015386,-0.30425 v -2.06349 c 0.5795272,-0.0901 2.5675201,-0.14108 1.8872991,-0.14108 z m -6.3591829,0.26589 v 1.71698 l -4.0496135,1.73778 -0.7333402,-0.61241 c 0.8364179,-1.01994 2.321539,-2.29768 4.7829537,-2.84235 z m 2.8702929,0.33612 c -0.1848517,-6.7e-4 -0.334886,0.14931 -0.3341638,0.33417 3.333e-4,0.18409 0.1500745,0.33293 0.3341638,0.3322 h 0.633871 c 0.183075,-6.5e-4 0.331206,-0.14913 0.331562,-0.3322 6.65e-4,-0.18384 -0.147728,-0.33345 -0.331562,-0.33417 z m 0,0.95113 c -0.1848517,-6.6e-4 -0.334886,0.14931 -0.3341638,0.33416 6.655e-4,0.18384 0.1503273,0.33229 0.3341638,0.33156 h 3.803218 c 0.183075,-3.3e-4 0.331502,-0.14849 0.332214,-0.33156 6.65e-4,-0.18408 -0.148124,-0.3338 -0.332214,-0.33416 z m 5.40577,0.12543 0.602016,0.14954 v 2.3983 l -0.602016,0.11247 z m -5.08916,2.12526 c 1.22075,0 2.203915,0.98317 2.203915,2.20392 0,1.22075 -0.983165,2.20196 -2.203915,2.20196 -1.2207551,0 -2.2039149,-0.98121 -2.2039149,-2.20196 0,-1.22076 0.9831598,-2.20392 2.2039149,-2.20392 z m -1.28529,2.20392 c 2.5e-6,0.70513 0.5801602,1.28268 1.285292,1.28268 0.705134,0 1.282692,-0.57755 1.282694,-1.28268 -2e-6,-0.70513 -0.560986,-1.28465 -1.282696,-1.28465 -0.706915,0 -1.2852875,0.59052 -1.28529,1.28465 z m 1.28529,-0.61892 c 0.345347,0 0.616964,0.27357 0.616967,0.61892 -3e-6,0.34535 -0.27162,0.61697 -0.616967,0.61697 -0.345349,0 -0.6189159,-0.27162 -0.6189159,-0.61697 0,-0.34535 0.2735669,-0.61892 0.6189159,-0.61892 z m 6.99077,0.47654 h 1.869754 v 0.44208 h -0.936177 c -0.183897,6.6e-4 -0.332284,0.15027 -0.331562,0.33416 6.65e-4,0.18295 0.148616,0.33159 0.331562,0.33222 h 1.663665 l 0.410226,1.23588 h -4.145184 l 0.41023,-1.23588 h 0.393323 c 0.183904,6.7e-4 0.333536,-0.14831 0.334163,-0.33222 z m -15.8506454,0.47458 h 6.0097366 c 0.024166,0.20791 0.07007,0.40933 0.136527,0.60137 h -5.529948 c -0.3402824,0 -0.6085134,-0.26325 -0.6163156,-0.60137 z m 11.7080624,0 h 1.412068 c -0.11461,0.13216 -0.247973,0.25578 -0.375123,0.38293 -0.140644,0.14064 -0.329645,0.21845 -0.52855,0.21844 h -0.644923 c 0.06635,-0.19205 0.112408,-0.39345 0.136528,-0.60137 z"
       sodipodi:nodetypes="ssssssssccccsssscscsssscccccccccccsssssscsssscsccccccccccccsccsccccccccccccccccccccsssssccsccsccccccccccccccccccccccccccccccccccccccsccccccccsccscccsccccccccccsccccccccccccccccccccccccccccccccccccccsccsscccccccccccccccccccccsccscccccccsssssssscssssssccccccccccccccccsccccccc" />
  </g>
</svg>
